<svg width="248" height="129" viewBox="0 0 248 129" fill="none" xmlns="http://www.w3.org/2000/svg">
<rect y="60.5637" width="234" height="70" rx="10" transform="rotate(-15 0 60.5637)" fill="#6EC3F3"/>
<g clip-path="url(#clip0_1_1096)">
<path fill-rule="evenodd" clip-rule="evenodd" d="M26.0319 74.2051C26.2512 74.3064 26.3468 74.5664 26.2455 74.7857L24.3628 78.8592C24.2394 79.1261 23.9135 79.2295 23.6589 79.0825L21.5749 77.8793C21.3656 77.7585 21.2939 77.4909 21.4147 77.2816C21.5355 77.0724 21.8031 77.0007 22.0124 77.1215L23.7408 78.1194L25.4512 74.4186C25.5526 74.1993 25.8126 74.1037 26.0319 74.2051Z" fill="#050505"/>
<path fill-rule="evenodd" clip-rule="evenodd" d="M27.2718 70.8993L18.2565 73.3149C18.1009 73.3566 18.0085 73.5165 18.0502 73.6721L20.4659 82.6874C20.5076 82.843 20.6675 82.9354 20.8231 82.8937L29.8384 80.478C29.994 80.4363 30.0863 80.2764 30.0446 80.1208L27.629 71.1055C27.5873 70.9499 27.4274 70.8576 27.2718 70.8993ZM18.03 72.4697C17.4076 72.6365 17.0383 73.2762 17.205 73.8986L19.6207 82.9139C19.7875 83.5363 20.4272 83.9056 21.0496 83.7388L30.0649 81.3232C30.6872 81.1564 31.0566 80.5167 30.8898 79.8943L28.4742 70.879C28.3074 70.2566 27.6677 69.8873 27.0453 70.0541L18.03 72.4697Z" fill="#050505"/>
</g>
<path d="M36.8568 68.0994L41.9949 75.596L42.1101 75.5651L42.8115 66.5038L44.0601 66.1693L43.0841 76.9718L41.8547 77.3012L35.6083 68.4339L36.8568 68.0994ZM48.0736 75.6348L46.0971 68.2587L47.2305 67.955L49.2069 75.3312L48.0736 75.6348ZM46.344 66.8749C46.1231 66.9341 45.9125 66.9099 45.7121 66.8023C45.5149 66.6939 45.388 66.534 45.3314 66.3227C45.2747 66.1114 45.3047 65.9095 45.4213 65.717C45.541 65.5237 45.7113 65.3974 45.9322 65.3382C46.1531 65.279 46.3622 65.3036 46.5594 65.4121C46.7598 65.5197 46.8883 65.6791 46.9449 65.8904C47.0015 66.1017 46.9699 66.304 46.8502 66.4974C46.7336 66.6899 46.5649 66.8157 46.344 66.8749ZM54.9736 67.6508L54.0328 68.2117C53.9233 68.0592 53.7847 67.9196 53.6169 67.793C53.4515 67.6623 53.249 67.5725 53.0094 67.5234C52.7698 67.4744 52.4851 67.4941 52.1554 67.5824C51.704 67.7034 51.3557 67.9082 51.1105 68.197C50.8676 68.4816 50.7887 68.7824 50.8736 69.0994C50.9491 69.3811 51.1112 69.5762 51.3598 69.6845C51.6085 69.7929 51.9651 69.8432 52.4296 69.8354L53.5966 69.8109C54.299 69.7943 54.856 69.9075 55.2677 70.1506C55.6786 70.3905 55.953 70.7682 56.0912 71.2836C56.2044 71.7062 56.184 72.1166 56.0299 72.5147C55.879 72.912 55.6132 73.2646 55.2324 73.5725C54.8517 73.8804 54.3748 74.1111 53.8017 74.2647C53.0494 74.4663 52.383 74.4698 51.8024 74.2754C51.2219 74.081 50.782 73.6876 50.4826 73.0953L51.4862 72.5381C51.695 72.9076 51.9685 73.1535 52.3066 73.2756C52.6479 73.3969 53.0507 73.3954 53.5149 73.271C54.0431 73.1294 54.4325 72.905 54.683 72.5977C54.9358 72.2863 55.0198 71.9722 54.9349 71.6552C54.8662 71.3991 54.7191 71.2086 54.4935 71.0838C54.2671 70.9557 53.9566 70.8983 53.562 70.9113L52.2555 70.9526C51.5371 70.9735 50.9744 70.8584 50.5673 70.6072C50.1627 70.3519 49.8921 69.9697 49.7557 69.4607C49.6442 69.0445 49.6624 68.645 49.8103 68.2622C49.9615 67.8786 50.2159 67.5411 50.5736 67.2497C50.9345 66.9574 51.3742 66.7417 51.8929 66.6028C52.6228 66.4072 53.2387 66.4137 53.7407 66.6223C54.2459 66.8301 54.6569 67.1729 54.9736 67.6508ZM59.5793 64.6461L59.8366 65.6066L56.0141 66.6308L55.7567 65.6704L59.5793 64.6461ZM56.3973 63.6047L57.5306 63.301L59.4144 70.3314C59.5002 70.6515 59.611 70.8792 59.7467 71.0144C59.8848 71.1455 60.0348 71.2186 60.1966 71.2336C60.3608 71.2445 60.5261 71.2276 60.6926 71.183C60.8175 71.1496 60.9182 71.1157 60.9948 71.0814C61.0705 71.044 61.1311 71.014 61.1766 70.9916L61.6799 71.9479C61.6108 71.9973 61.5112 72.0548 61.3813 72.1205C61.2522 72.1894 61.082 72.2522 60.8707 72.3088C60.5506 72.3946 60.2184 72.4098 59.8742 72.3545C59.5331 72.2983 59.224 72.1564 58.9469 71.9287C58.6729 71.7002 58.4784 71.3714 58.3635 70.9424L56.3973 63.6047ZM65.4774 71.1568C65.01 71.282 64.5622 71.3077 64.1341 71.2337C63.705 71.1565 63.3335 70.9798 63.0193 70.7037C62.7042 70.4244 62.4824 70.0446 62.3537 69.5644C62.2405 69.1418 62.2319 68.777 62.3281 68.4698C62.4233 68.1595 62.5901 67.8918 62.8283 67.6667C63.0665 67.4416 63.3438 67.2472 63.6602 67.0835C63.979 66.9157 64.3037 66.7635 64.6342 66.6269C65.067 66.4492 65.4188 66.3086 65.6896 66.2052C65.9627 66.0977 66.1535 65.9899 66.2618 65.882C66.3733 65.7732 66.4046 65.6275 66.3557 65.4451L66.3454 65.4066C66.2185 64.9328 65.9902 64.5994 65.6605 64.4064C65.3341 64.2125 64.9099 64.1854 64.3881 64.3253C63.847 64.4702 63.4546 64.7024 63.2107 65.0216C62.9669 65.3409 62.8185 65.6517 62.7657 65.9541L61.5871 65.8581C61.6591 65.3585 61.8217 64.9409 62.0749 64.6054C62.3305 64.2658 62.6355 63.9954 62.9899 63.794C63.3466 63.5887 63.7106 63.4362 64.082 63.3367C64.3189 63.2732 64.5988 63.2291 64.9215 63.2044C65.2467 63.1756 65.5765 63.2091 65.9109 63.3047C66.2486 63.3996 66.5602 63.5957 66.8458 63.8932C67.1314 64.1907 67.3527 64.6324 67.5096 65.2182L68.8118 70.078L67.6785 70.3817L67.4109 69.3829L67.3532 69.3983C67.3193 69.579 67.2371 69.7846 67.1067 70.0151C66.9764 70.2456 66.7795 70.4648 66.516 70.6726C66.2526 70.8804 65.9064 71.0418 65.4774 71.1568ZM65.3775 70.0924C65.8257 69.9723 66.1799 69.783 66.44 69.5246C66.7034 69.2653 66.8762 68.9754 66.9584 68.6548C67.0439 68.3334 67.0454 68.019 66.9631 67.7117L66.6851 66.6744C66.6526 66.7449 66.5611 66.826 66.4107 66.9178C66.2626 67.0055 66.0876 67.0953 65.8858 67.1871C65.6863 67.2749 65.4907 67.3582 65.2991 67.437C65.1098 67.5117 64.9565 67.5734 64.8391 67.622C64.5548 67.7393 64.2962 67.8755 64.0633 68.0306C63.8327 68.1816 63.6617 68.363 63.5503 68.5747C63.4412 68.7823 63.4253 69.0302 63.5025 69.3184C63.608 69.7121 63.8334 69.9708 64.1788 70.0945C64.5265 70.214 64.9261 70.2134 65.3775 70.0924ZM77.7214 67.8554C77.0299 68.0407 76.3907 68.037 75.8038 67.8443C75.2169 67.6515 74.7122 67.3047 74.2897 66.8037C73.8672 66.3027 73.5573 65.684 73.36 64.9477C73.1593 64.1985 73.1198 63.5005 73.2416 62.8537C73.3657 62.2028 73.6326 61.6492 74.0421 61.1929C74.4541 60.7325 74.993 60.4131 75.6589 60.2347C76.1775 60.0957 76.6707 60.0665 77.1383 60.1471C77.606 60.2277 78.019 60.4052 78.3774 60.6798C78.7357 60.9543 79.0087 61.3135 79.1963 61.7574L78.0629 62.0611C77.8864 61.7481 77.6146 61.5018 77.2473 61.3223C76.8825 61.1387 76.4503 61.1138 75.9509 61.2476C75.5091 61.366 75.1526 61.585 74.8814 61.9048C74.6126 62.2204 74.4411 62.6112 74.3669 63.0772C74.2951 63.539 74.3338 64.0485 74.483 64.6056C74.6357 65.1754 74.8583 65.6476 75.1509 66.0222C75.4466 66.3959 75.7906 66.6554 76.183 66.8008C76.5786 66.9453 77.0005 66.9575 77.4487 66.8374C77.7432 66.7584 77.9968 66.6356 78.2094 66.4688C78.4221 66.302 78.5859 66.1003 78.7009 65.8636C78.8159 65.6269 78.8726 65.3646 78.871 65.0768L80.0043 64.7732C80.057 65.2257 80.0036 65.6604 79.8442 66.0771C79.6871 66.4898 79.4295 66.8539 79.0714 67.1694C78.7157 67.4809 78.2657 67.7096 77.7214 67.8554ZM84.4545 66.0719C83.987 66.1971 83.5393 66.2228 83.1111 66.1488C82.6821 66.0716 82.3105 65.8949 81.9963 65.6188C81.6813 65.3395 81.4594 64.9597 81.3308 64.4795C81.2175 64.0569 81.209 63.6921 81.3051 63.3849C81.4004 63.0746 81.5671 62.8069 81.8053 62.5818C82.0436 62.3567 82.3209 62.1623 82.6373 61.9986C82.9561 61.8308 83.2807 61.6786 83.6113 61.542C84.044 61.3643 84.3958 61.2237 84.6666 61.1203C84.9398 61.0128 85.1305 60.9051 85.2388 60.7971C85.3504 60.6883 85.3817 60.5427 85.3328 60.3602L85.3225 60.3218C85.1955 59.8479 84.9672 59.5145 84.6376 59.3215C84.3111 59.1276 83.887 59.1006 83.3651 59.2404C82.8241 59.3854 82.4316 59.6175 82.1878 59.9367C81.9439 60.256 81.7956 60.5668 81.7428 60.8692L80.5641 60.7732C80.6361 60.2736 80.7987 59.856 81.052 59.5205C81.3076 59.1809 81.6125 58.9105 81.9669 58.7092C82.3236 58.5038 82.6877 58.3513 83.0591 58.2518C83.296 58.1883 83.5758 58.1442 83.8986 58.1195C84.2237 58.0907 84.5535 58.1242 84.888 58.2198C85.2256 58.3147 85.5372 58.5108 85.8228 58.8083C86.1084 59.1058 86.3297 59.5475 86.4867 60.1333L87.7889 64.9932L86.6556 65.2968L86.3879 64.298L86.3303 64.3134C86.2963 64.4941 86.2142 64.6997 86.0838 64.9302C85.9534 65.1607 85.7565 65.3799 85.4931 65.5877C85.2297 65.7956 84.8835 65.957 84.4545 66.0719ZM84.3545 65.0075C84.8028 64.8874 85.1569 64.6982 85.4171 64.4397C85.6805 64.1804 85.8533 63.8905 85.9355 63.5699C86.0209 63.2485 86.0225 62.9342 85.9401 62.6268L85.6622 61.5895C85.6296 61.66 85.5381 61.7412 85.3877 61.8329C85.2396 61.9206 85.0647 62.0104 84.8628 62.1023C84.6633 62.19 84.4677 62.2733 84.2761 62.3521C84.0868 62.4268 83.9335 62.4885 83.8161 62.5371C83.5319 62.6545 83.2733 62.7907 83.0403 62.9457C82.8097 63.0967 82.6387 63.2781 82.5273 63.4898C82.4182 63.6975 82.4023 63.9453 82.4795 64.2335C82.585 64.6273 82.8105 64.886 83.1559 65.0096C83.5036 65.1292 83.9031 65.1285 84.3545 65.0075ZM88.3555 54.3003L90.9907 64.1352L89.8574 64.4389L87.2222 54.604L88.3555 54.3003ZM96.2003 62.904C95.4895 63.0945 94.8344 63.1019 94.2349 62.9262C93.6378 62.7466 93.124 62.4107 92.6936 61.9187C92.2656 61.4226 91.9504 60.7968 91.7479 60.0412C91.5455 59.2857 91.5047 58.5829 91.6256 57.9328C91.7489 57.2788 92.0153 56.7236 92.4249 56.2672C92.8368 55.8069 93.3758 55.4875 94.0417 55.309C94.4258 55.2061 94.8224 55.1685 95.2313 55.1962C95.6401 55.2239 96.0369 55.3406 96.4214 55.5464C96.8051 55.749 97.1512 56.0611 97.4598 56.4828C97.7684 56.9045 98.0149 57.4596 98.1993 58.1479L98.328 58.6281L92.6422 60.1516L92.3797 59.1719L96.913 57.9573C96.8015 57.5411 96.6187 57.192 96.3647 56.9101C96.114 56.6273 95.8112 56.4322 95.4565 56.3248C95.1049 56.2165 94.7242 56.2173 94.3145 56.3271C93.863 56.4481 93.5025 56.6648 93.2328 56.9772C92.9654 57.2856 92.7913 57.6411 92.7105 58.0436C92.6296 58.4462 92.6436 58.8507 92.7526 59.2573L92.9276 59.9104C93.0768 60.4675 93.2994 60.914 93.5953 61.2499C93.8935 61.5817 94.2425 61.8022 94.6423 61.9112C95.0413 62.0171 95.4697 62.0086 95.9275 61.886C96.2252 61.8062 96.483 61.6925 96.7008 61.5449C96.9209 61.3933 97.0963 61.2091 97.2269 60.9922C97.3567 60.7721 97.4353 60.5212 97.4627 60.2393L98.6399 60.2533C98.6242 60.6556 98.518 61.034 98.3214 61.3886C98.1239 61.7401 97.8461 62.0479 97.4879 62.312C97.1289 62.5729 96.6997 62.7702 96.2003 62.904ZM100.882 56.7292L102.071 61.1664L100.937 61.4701L98.9608 54.0939L100.056 53.8005L100.365 54.953L100.461 54.9273C100.533 54.5064 100.715 54.1351 101.006 53.8135C101.297 53.4886 101.72 53.2515 102.277 53.1023C102.777 52.9685 103.241 52.9538 103.671 53.0583C104.099 53.1597 104.473 53.3889 104.792 53.7462C105.11 54.1002 105.353 54.591 105.521 55.2184L106.777 59.9054L105.643 60.209L104.408 55.5989C104.253 55.0195 103.981 54.6084 103.594 54.3657C103.205 54.1198 102.749 54.0672 102.224 54.2078C101.862 54.3048 101.56 54.4699 101.317 54.7031C101.077 54.9354 100.916 55.224 100.833 55.5686C100.751 55.9133 100.767 56.3002 100.882 56.7292ZM111.674 58.7578C111.059 58.9225 110.475 58.9127 109.921 58.7282C109.367 58.5406 108.88 58.1974 108.462 57.6988C108.042 57.1969 107.728 56.5554 107.519 55.7742C107.311 54.9995 107.264 54.2916 107.377 53.6505C107.49 53.0095 107.742 52.4702 108.132 52.0327C108.523 51.5952 109.029 51.2932 109.65 51.1268C110.13 50.9981 110.531 50.9765 110.852 51.062C111.176 51.1433 111.439 51.2651 111.64 51.4274C111.844 51.5856 112.004 51.7175 112.122 51.8233L112.218 51.7975L111.245 48.1671L112.378 47.8634L115.014 57.6983L113.919 57.9917L113.615 56.8584L113.481 56.8944C113.433 57.0511 113.36 57.2526 113.262 57.4986C113.162 57.7415 112.991 57.9811 112.749 58.2176C112.506 58.4508 112.148 58.6309 111.674 58.7578ZM111.555 57.6986C112.01 57.5768 112.362 57.3554 112.612 57.0344C112.862 56.7102 113.011 56.315 113.061 55.8486C113.111 55.3791 113.061 54.8658 112.911 54.3087C112.764 53.7581 112.555 53.2977 112.284 52.9276C112.012 52.5543 111.689 52.2944 111.313 52.148C110.937 51.9984 110.518 51.9853 110.057 52.1088C109.577 52.2375 109.21 52.468 108.956 52.8003C108.704 53.1285 108.554 53.5238 108.507 53.9861C108.461 54.4443 108.508 54.9327 108.647 55.4514C108.788 55.9764 108.996 56.432 109.271 56.8181C109.548 57.2001 109.879 57.4751 110.264 57.6431C110.651 57.8071 111.081 57.8255 111.555 57.6986ZM119.464 56.6912C118.996 56.8165 118.548 56.8421 118.12 56.7681C117.691 56.6909 117.32 56.5142 117.005 56.2381C116.69 55.9588 116.469 55.5791 116.34 55.0988C116.227 54.6763 116.218 54.3114 116.314 54.0043C116.41 53.6939 116.576 53.4262 116.814 53.2011C117.053 52.976 117.33 52.7816 117.646 52.6179C117.965 52.4502 118.29 52.298 118.62 52.1614C119.053 51.9836 119.405 51.8431 119.676 51.7396C119.949 51.6321 120.14 51.5244 120.248 51.4164C120.36 51.3076 120.391 51.162 120.342 50.9795L120.332 50.9411C120.205 50.4673 119.976 50.1338 119.647 49.9408C119.32 49.7469 118.896 49.7199 118.374 49.8597C117.833 50.0047 117.441 50.2368 117.197 50.5561C116.953 50.8753 116.805 51.1861 116.752 51.4885L115.573 51.3926C115.645 50.8929 115.808 50.4753 116.061 50.1398C116.317 49.8003 116.622 49.5298 116.976 49.3285C117.333 49.1231 117.697 48.9707 118.068 48.8711C118.305 48.8077 118.585 48.7636 118.908 48.7388C119.233 48.7101 119.563 48.7435 119.897 48.8392C120.235 48.934 120.546 49.1301 120.832 49.4276C121.118 49.7251 121.339 50.1668 121.496 50.7527L122.798 55.6125L121.665 55.9162L121.397 54.9173L121.339 54.9327C121.305 55.1134 121.223 55.319 121.093 55.5495C120.963 55.78 120.766 55.9992 120.502 56.2071C120.239 56.4149 119.893 56.5763 119.464 56.6912ZM119.364 55.6268C119.812 55.5067 120.166 55.3175 120.426 55.0591C120.69 54.7998 120.862 54.5098 120.945 54.1893C121.03 53.8679 121.032 53.5535 120.949 53.2461L120.671 52.2089C120.639 52.2794 120.547 52.3605 120.397 52.4523C120.249 52.54 120.074 52.6297 119.872 52.7216C119.672 52.8094 119.477 52.8926 119.285 52.9714C119.096 53.0462 118.943 53.1078 118.825 53.1564C118.541 53.2738 118.282 53.41 118.049 53.5651C117.819 53.7161 117.648 53.8974 117.536 54.1091C117.427 54.3168 117.411 54.5647 117.489 54.8528C117.594 55.2466 117.82 55.5053 118.165 55.6289C118.513 55.7485 118.912 55.7478 119.364 55.6268ZM124.867 55.0582L122.89 47.6821L123.985 47.3887L124.284 48.5028L124.36 48.4822C124.397 48.0812 124.561 47.7199 124.852 47.3982C125.144 47.0765 125.51 46.8565 125.952 46.7381C126.035 46.7158 126.14 46.6896 126.265 46.6593C126.391 46.6291 126.487 46.6085 126.552 46.5978L126.861 47.7503C126.82 47.751 126.728 47.7602 126.586 47.7779C126.445 47.7915 126.3 47.8185 126.149 47.8588C125.791 47.9549 125.491 48.1159 125.249 48.3418C125.01 48.5637 124.844 48.8278 124.751 49.1341C124.661 49.4363 124.66 49.7539 124.749 50.0868L126 54.7545L124.867 55.0582ZM129.898 53.71L127.922 46.3339L129.055 46.0302L131.031 53.4064L129.898 53.71ZM128.168 44.9501C127.948 45.0093 127.737 44.9851 127.537 44.8775C127.339 44.7691 127.212 44.6092 127.156 44.3979C127.099 44.1866 127.129 43.9847 127.246 43.7922C127.365 43.5989 127.536 43.4726 127.757 43.4134C127.978 43.3542 128.187 43.3788 128.384 43.4873C128.584 43.5948 128.713 43.7543 128.769 43.9656C128.826 44.1769 128.794 44.3792 128.675 44.5726C128.558 44.7651 128.389 44.8909 128.168 44.9501ZM136.145 52.2009C135.479 52.3793 134.852 52.3774 134.265 52.1952C133.68 52.012 133.171 51.6733 132.737 51.1789C132.305 50.6837 131.988 50.0551 131.783 49.2932C131.578 48.5248 131.537 47.8168 131.662 47.1691C131.79 46.5205 132.062 45.9709 132.476 45.5201C132.894 45.0685 133.436 44.7535 134.102 44.575C134.767 44.3966 135.393 44.399 135.977 44.5821C136.564 44.7643 137.074 45.1047 137.506 45.6031C137.942 46.1007 138.262 46.7337 138.468 47.502C138.672 48.264 138.71 48.9676 138.581 49.6129C138.455 50.2574 138.183 50.8055 137.765 51.2571C137.351 51.7079 136.811 52.0225 136.145 52.2009ZM135.872 51.1828C136.378 51.0473 136.759 50.8061 137.016 50.4593C137.273 50.1125 137.424 49.7068 137.467 49.2422C137.511 48.7775 137.467 48.2987 137.335 47.8057C137.203 47.3127 137.001 46.8743 136.73 46.4905C136.459 46.1067 136.125 45.8273 135.728 45.6523C135.331 45.4773 134.88 45.4576 134.374 45.5931C133.868 45.7286 133.487 45.9714 133.231 46.3214C132.975 46.6715 132.826 47.0804 132.783 47.5482C132.74 48.016 132.785 48.4965 132.917 48.9895C133.049 49.4825 133.25 49.9193 133.52 50.2999C133.79 50.6804 134.123 50.9566 134.519 51.1284C134.915 51.3002 135.366 51.3184 135.872 51.1828ZM147.806 49.0764C147.191 49.2411 146.607 49.2312 146.053 49.0468C145.498 48.8591 145.012 48.516 144.593 48.0173C144.174 47.5155 143.86 46.874 143.651 46.0928C143.443 45.318 143.396 44.6101 143.509 43.9691C143.622 43.328 143.873 42.7887 144.264 42.3512C144.655 41.9137 145.161 41.6118 145.782 41.4454C146.262 41.3167 146.663 41.2951 146.984 41.3805C147.308 41.4619 147.57 41.5837 147.772 41.7459C147.975 41.9041 148.136 42.0361 148.254 42.1418L148.35 42.1161L147.377 38.4856L148.51 38.182L151.145 48.0168L150.05 48.3102L149.747 47.1769L149.612 47.2129C149.565 47.3697 149.492 47.5711 149.393 47.8172C149.294 48.0601 149.123 48.2997 148.881 48.5361C148.638 48.7693 148.28 48.9494 147.806 49.0764ZM147.687 48.0171C148.141 47.8953 148.494 47.6739 148.744 47.353C148.993 47.0288 149.143 46.6335 149.193 46.1672C149.242 45.6976 149.192 45.1843 149.043 44.6273C148.895 44.0766 148.686 43.6163 148.416 43.2462C148.144 42.8729 147.82 42.613 147.445 42.4666C147.069 42.3169 146.65 42.3039 146.189 42.4274C145.709 42.5561 145.342 42.7866 145.087 43.1188C144.836 43.4471 144.686 43.8423 144.638 44.3046C144.593 44.7628 144.64 45.2513 144.779 45.7699C144.919 46.295 145.127 46.7505 145.402 47.1366C145.68 47.5187 146.011 47.7937 146.395 47.9617C146.782 48.1256 147.213 48.1441 147.687 48.0171ZM156.512 46.7435C155.801 46.934 155.146 46.9414 154.547 46.7657C153.95 46.586 153.436 46.2502 153.006 45.7581C152.578 45.2621 152.262 44.6362 152.06 43.8807C151.857 43.1252 151.817 42.4224 151.938 41.7723C152.061 41.1182 152.327 40.563 152.737 40.1067C153.149 39.6464 153.688 39.327 154.354 39.1485C154.738 39.0456 155.134 39.008 155.543 39.0357C155.952 39.0633 156.349 39.1801 156.733 39.3859C157.117 39.5884 157.463 39.9006 157.772 40.3223C158.08 40.744 158.327 41.299 158.511 41.9874L158.64 42.4676L152.954 43.9911L152.692 43.0114L157.225 41.7967C157.113 41.3806 156.931 41.0315 156.677 40.7495C156.426 40.4667 156.123 40.2717 155.768 40.1643C155.417 40.056 155.036 40.0568 154.626 40.1666C154.175 40.2875 153.814 40.5042 153.545 40.8167C153.277 41.1251 153.103 41.4806 153.022 41.8831C152.941 42.2857 152.956 42.6902 153.064 43.0968L153.239 43.7499C153.389 44.307 153.611 44.7534 153.907 45.0893C154.205 45.4212 154.554 45.6416 154.954 45.7507C155.353 45.8565 155.782 45.8481 156.239 45.7255C156.537 45.6457 156.795 45.532 157.013 45.3844C157.233 45.2328 157.408 45.0485 157.539 44.8317C157.669 44.6116 157.747 44.3607 157.775 44.0788L158.952 44.0928C158.936 44.495 158.83 44.8735 158.633 45.2281C158.436 45.5796 158.158 45.8873 157.8 46.1514C157.441 46.4123 157.012 46.6097 156.512 46.7435ZM166.284 36.0547L166.541 37.0152L162.719 38.0394L162.461 37.079L166.284 36.0547ZM163.102 35.0132L164.235 34.7096L166.119 41.74C166.205 42.0601 166.316 42.2878 166.451 42.423C166.589 42.5541 166.739 42.6272 166.901 42.6421C167.065 42.6531 167.231 42.6362 167.397 42.5916C167.522 42.5581 167.623 42.5243 167.699 42.49C167.775 42.4526 167.836 42.4226 167.881 42.4001L168.385 43.3564C168.315 43.4058 168.216 43.4634 168.086 43.5291C167.957 43.598 167.787 43.6608 167.575 43.7174C167.255 43.8032 166.923 43.8184 166.579 43.7631C166.238 43.7069 165.929 43.565 165.651 43.3373C165.378 43.1088 165.183 42.78 165.068 42.351L163.102 35.0132ZM172.182 42.5654C171.715 42.6906 171.267 42.7162 170.839 42.6422C170.41 42.565 170.038 42.3884 169.724 42.1123C169.409 41.833 169.187 41.4532 169.058 40.973C168.945 40.5504 168.937 40.1855 169.033 39.8784C169.128 39.5681 169.295 39.3004 169.533 39.0753C169.771 38.8502 170.048 38.6558 170.365 38.4921C170.684 38.3243 171.008 38.1721 171.339 38.0355C171.772 37.8578 172.123 37.7172 172.394 37.6138C172.667 37.5063 172.858 37.3985 172.966 37.2906C173.078 37.1818 173.109 37.0361 173.06 36.8536L173.05 36.8152C172.923 36.3414 172.695 36.008 172.365 35.815C172.039 35.6211 171.615 35.594 171.093 35.7339C170.552 35.8788 170.159 36.1109 169.915 36.4302C169.671 36.7495 169.523 37.0603 169.47 37.3627L168.292 37.2667C168.364 36.767 168.526 36.3495 168.78 36.014C169.035 35.6744 169.34 35.404 169.694 35.2026C170.051 34.9972 170.415 34.8448 170.787 34.7453C171.024 34.6818 171.303 34.6377 171.626 34.613C171.951 34.5842 172.281 34.6176 172.616 34.7133C172.953 34.8081 173.265 35.0043 173.55 35.3018C173.836 35.5993 174.057 36.0409 174.214 36.6268L175.516 41.4866L174.383 41.7903L174.115 40.7914L174.058 40.8069C174.024 40.9875 173.942 41.1931 173.811 41.4237C173.681 41.6542 173.484 41.8734 173.221 42.0812C172.957 42.289 172.611 42.4504 172.182 42.5654ZM172.082 41.501C172.53 41.3809 172.885 41.1916 173.145 40.9332C173.408 40.6739 173.581 40.384 173.663 40.0634C173.749 39.742 173.75 39.4276 173.668 39.1203L173.39 38.083C173.357 38.1535 173.266 38.2346 173.115 38.3264C172.967 38.4141 172.792 38.5039 172.59 38.5957C172.391 38.6835 172.195 38.7668 172.004 38.8456C171.814 38.9203 171.661 38.982 171.544 39.0306C171.259 39.1479 171.001 39.2841 170.768 39.4392C170.537 39.5902 170.366 39.7716 170.255 39.9833C170.146 40.1909 170.13 40.4388 170.207 40.7269C170.313 41.1207 170.538 41.3794 170.883 41.5031C171.231 41.6226 171.631 41.6219 172.082 41.501ZM177.585 40.9324L175.609 33.5562L176.703 33.2628L177.002 34.3769L177.079 34.3563C177.115 33.9553 177.279 33.594 177.571 33.2724C177.862 32.9507 178.228 32.7307 178.67 32.6123C178.754 32.59 178.858 32.5637 178.984 32.5334C179.109 32.5032 179.205 32.4827 179.271 32.4719L179.58 33.6245C179.539 33.6252 179.447 33.6343 179.304 33.652C179.164 33.6656 179.018 33.6926 178.868 33.7329C178.509 33.829 178.209 33.99 177.968 34.216C177.729 34.4379 177.563 34.702 177.47 35.0082C177.379 35.3104 177.378 35.628 177.468 35.961L178.718 40.6287L177.585 40.9324ZM185.526 38.9693C184.815 39.1598 184.16 39.1672 183.56 38.9915C182.963 38.8119 182.45 38.476 182.019 37.984C181.591 37.4879 181.276 36.8621 181.073 36.1065C180.871 35.351 180.83 34.6482 180.951 33.9982C181.074 33.3441 181.341 32.7889 181.75 32.3325C182.162 31.8722 182.701 31.5528 183.367 31.3743C183.751 31.2714 184.148 31.2338 184.557 31.2615C184.966 31.2892 185.362 31.4059 185.747 31.6117C186.131 31.8143 186.477 32.1264 186.785 32.5481C187.094 32.9698 187.34 33.5249 187.525 34.2132L187.653 34.6934L181.968 36.2169L181.705 35.2373L186.238 34.0226C186.127 33.6064 185.944 33.2573 185.69 32.9754C185.439 32.6926 185.137 32.4975 184.782 32.3901C184.43 32.2818 184.05 32.2826 183.64 32.3924C183.189 32.5134 182.828 32.7301 182.558 33.0425C182.291 33.3509 182.117 33.7064 182.036 34.1089C181.955 34.5115 181.969 34.916 182.078 35.3226L182.253 35.9757C182.402 36.5328 182.625 36.9793 182.921 37.3152C183.219 37.647 183.568 37.8675 183.968 37.9765C184.367 38.0824 184.795 38.0739 185.253 37.9513C185.551 37.8715 185.808 37.7578 186.026 37.6102C186.246 37.4586 186.422 37.2744 186.552 37.0575C186.682 36.8374 186.761 36.5865 186.788 36.3046L187.965 36.3186C187.95 36.7209 187.844 37.0993 187.647 37.4539C187.449 37.8054 187.172 38.1132 186.813 38.3773C186.454 38.6382 186.025 38.8355 185.526 38.9693ZM192.48 37.1266C192.012 37.2519 191.564 37.2775 191.136 37.2035C190.707 37.1263 190.336 36.9496 190.022 36.6735C189.707 36.3942 189.485 36.0145 189.356 35.5343C189.243 35.1117 189.234 34.7468 189.33 34.4397C189.426 34.1293 189.592 33.8616 189.831 33.6365C190.069 33.4114 190.346 33.217 190.663 33.0533C190.981 32.8856 191.306 32.7334 191.636 32.5968C192.069 32.419 192.421 32.2785 192.692 32.175C192.965 32.0675 193.156 31.9598 193.264 31.8518C193.376 31.743 193.407 31.5974 193.358 31.4149L193.348 31.3765C193.221 30.9027 192.992 30.5692 192.663 30.3762C192.336 30.1823 191.912 30.1553 191.39 30.2951C190.849 30.4401 190.457 30.6722 190.213 30.9915C189.969 31.3107 189.821 31.6215 189.768 31.9239L188.589 31.828C188.661 31.3283 188.824 30.9107 189.077 30.5752C189.333 30.2357 189.638 29.9652 189.992 29.7639C190.349 29.5585 190.713 29.4061 191.084 29.3066C191.321 29.2431 191.601 29.199 191.924 29.1742C192.249 29.1455 192.579 29.1789 192.913 29.2746C193.251 29.3694 193.562 29.5655 193.848 29.863C194.134 30.1605 194.355 30.6022 194.512 31.1881L195.814 36.0479L194.681 36.3516L194.413 35.3527L194.356 35.3681C194.322 35.5488 194.239 35.7544 194.109 35.9849C193.979 36.2154 193.782 36.4346 193.518 36.6425C193.255 36.8503 192.909 37.0117 192.48 37.1266ZM192.38 36.0622C192.828 35.9421 193.182 35.7529 193.442 35.4945C193.706 35.2352 193.878 34.9452 193.961 34.6247C194.046 34.3033 194.048 33.9889 193.965 33.6815L193.687 32.6443C193.655 32.7148 193.563 32.7959 193.413 32.8877C193.265 32.9754 193.09 33.0652 192.888 33.157C192.689 33.2448 192.493 33.328 192.301 33.4068C192.112 33.4816 191.959 33.5432 191.841 33.5919C191.557 33.7092 191.299 33.8454 191.066 34.0005C190.835 34.1515 190.664 34.3328 190.553 34.5445C190.443 34.7522 190.428 35.0001 190.505 35.2882C190.61 35.682 190.836 35.9407 191.181 36.0643C191.529 36.1839 191.928 36.1832 192.38 36.0622ZM201.574 28.3694L200.633 28.9304C200.523 28.7778 200.385 28.6383 200.217 28.5117C200.051 28.381 199.849 28.2911 199.609 28.2421C199.37 28.1931 199.085 28.2127 198.755 28.3011C198.304 28.422 197.956 28.6269 197.71 28.9156C197.468 29.2003 197.389 29.5011 197.474 29.818C197.549 30.0998 197.711 30.2948 197.96 30.4032C198.208 30.5116 198.565 30.5618 199.03 30.554L200.197 30.5296C200.899 30.5129 201.456 30.6262 201.868 30.8693C202.279 31.1092 202.553 31.4868 202.691 32.0023C202.804 32.4249 202.784 32.8352 202.63 33.2334C202.479 33.6307 202.213 33.9833 201.832 34.2912C201.452 34.5991 200.975 34.8298 200.402 34.9833C199.649 35.1849 198.983 35.1885 198.402 34.9941C197.822 34.7996 197.382 34.4062 197.083 33.8139L198.086 33.2568C198.295 33.6263 198.568 33.8721 198.907 33.9943C199.248 34.1156 199.651 34.114 200.115 33.9896C200.643 33.8481 201.032 33.6237 201.283 33.3163C201.536 33.005 201.62 32.6908 201.535 32.3739C201.466 32.1178 201.319 31.9273 201.094 31.8024C200.867 31.6744 200.557 31.6169 200.162 31.63L198.855 31.6713C198.137 31.6922 197.574 31.577 197.167 31.3258C196.763 31.0705 196.492 30.6884 196.356 30.1793C196.244 29.7631 196.262 29.3637 196.41 28.9809C196.561 28.5973 196.816 28.2597 197.174 27.9683C197.534 27.676 197.974 27.4604 198.493 27.3214C199.223 27.1258 199.839 27.1324 200.341 27.341C200.846 27.5488 201.257 27.8916 201.574 28.3694Z" fill="#050505"/>
<rect x="21.9439" y="96.0949" width="37" height="18" rx="9" transform="rotate(-15 21.9439 96.0949)" fill="#050505"/>
<path d="M32.9274 106.769C32.5268 106.877 32.143 106.899 31.776 106.835C31.4083 106.769 31.0898 106.618 30.8205 106.381C30.5505 106.141 30.3603 105.816 30.25 105.404C30.1529 105.042 30.1456 104.729 30.228 104.466C30.3097 104.2 30.4526 103.971 30.6568 103.778C30.861 103.585 31.0987 103.418 31.3699 103.278C31.6431 103.134 31.9214 103.004 32.2047 102.886C32.5757 102.734 32.8772 102.614 33.1093 102.525C33.3434 102.433 33.5069 102.341 33.5998 102.248C33.6954 102.155 33.7222 102.03 33.6803 101.873L33.6715 101.841C33.5627 101.434 33.367 101.149 33.0844 100.983C32.8046 100.817 32.441 100.794 31.9937 100.914C31.53 101.038 31.1936 101.237 30.9846 101.511C30.7755 101.784 30.6484 102.051 30.6031 102.31L29.5929 102.228C29.6546 101.799 29.794 101.441 30.011 101.154C30.2301 100.863 30.4915 100.631 30.7953 100.458C31.101 100.282 31.4131 100.152 31.7314 100.066C31.9345 100.012 32.1743 99.9741 32.451 99.9529C32.7297 99.9282 33.0123 99.9569 33.299 100.039C33.5884 100.12 33.8555 100.288 34.1003 100.543C34.3451 100.798 34.5348 101.177 34.6694 101.679L35.7855 105.845L34.8141 106.105L34.5847 105.249L34.5353 105.262C34.5062 105.417 34.4358 105.593 34.324 105.791C34.2123 105.988 34.0435 106.176 33.8177 106.354C33.5919 106.532 33.2952 106.671 32.9274 106.769ZM32.8418 105.857C33.226 105.754 33.5296 105.592 33.7526 105.37C33.9783 105.148 34.1264 104.899 34.1969 104.625C34.2701 104.349 34.2715 104.08 34.2009 103.816L33.9627 102.927C33.9347 102.988 33.8563 103.057 33.7274 103.136C33.6005 103.211 33.4505 103.288 33.2775 103.367C33.1065 103.442 32.9388 103.513 32.7746 103.581C32.6123 103.645 32.4809 103.698 32.3803 103.739C32.1367 103.84 31.915 103.957 31.7153 104.09C31.5177 104.219 31.3711 104.375 31.2756 104.556C31.1821 104.734 31.1685 104.946 31.2347 105.193C31.3251 105.531 31.5183 105.753 31.8144 105.859C32.1124 105.961 32.4549 105.961 32.8418 105.857ZM37.5586 105.37L35.8645 99.0471L36.8359 98.7868L38.53 105.109L37.5586 105.37ZM36.0761 97.861C35.8867 97.9117 35.7062 97.891 35.5344 97.7988C35.3654 97.7058 35.2566 97.5688 35.2081 97.3877C35.1595 97.2066 35.1852 97.0335 35.2851 96.8685C35.3878 96.7028 35.5338 96.5946 35.7231 96.5438C35.9125 96.4931 36.0917 96.5142 36.2607 96.6071C36.4324 96.6994 36.5426 96.836 36.5911 97.0171C36.6396 97.1982 36.6126 97.3717 36.5099 97.5374C36.41 97.7024 36.2654 97.8103 36.0761 97.861ZM40.3092 104.632L38.6151 98.3101L39.5536 98.0586L39.8095 99.0135L39.8753 98.9959C39.9067 98.6522 40.0473 98.3425 40.2969 98.0668C40.5466 97.7911 40.8607 97.6025 41.2394 97.501C41.3108 97.4819 41.4003 97.4593 41.5081 97.4334C41.6158 97.4075 41.6979 97.3899 41.7542 97.3807L42.0189 98.3686C41.9838 98.3692 41.905 98.377 41.7826 98.3922C41.6622 98.4039 41.5375 98.427 41.4086 98.4615C41.1012 98.5439 40.8441 98.6819 40.6372 98.8756C40.4323 99.0658 40.29 99.2921 40.2103 99.5547C40.1327 99.8137 40.1321 100.086 40.2086 100.371L41.2806 104.372L40.3092 104.632Z" fill="#A9ACAE"/>
<g clip-path="url(#clip1_1_1096)">
<path fill-rule="evenodd" clip-rule="evenodd" d="M48.3526 95.8281C48.4254 95.702 48.5866 95.6588 48.7127 95.7316L51.2235 97.1812L52.6731 94.6704C52.7459 94.5444 52.9071 94.5012 53.0331 94.5739C53.1592 94.6467 53.2024 94.8079 53.1296 94.934L51.68 97.4448L54.1908 98.8944C54.3168 98.9672 54.36 99.1284 54.2872 99.2544C54.2145 99.3805 54.0533 99.4237 53.9272 99.3509L51.4164 97.9013L49.9668 100.412C49.894 100.538 49.7328 100.581 49.6068 100.509C49.4807 100.436 49.4375 100.275 49.5103 100.149L50.9599 97.6377L48.4491 96.1881C48.323 96.1153 48.2798 95.9541 48.3526 95.8281Z" fill="#A9ACAE"/>
</g>
<g clip-path="url(#clip2_1_1096)">
<path fill-rule="evenodd" clip-rule="evenodd" d="M66.5735 89.0915C66.5005 89.1091 66.4571 89.1842 66.4784 89.2561L67.6851 93.3361C67.6949 93.3695 67.7177 93.3975 67.7483 93.4141L72.7488 96.1243C72.8113 96.1582 72.8894 96.1362 72.925 96.0746L75.7012 91.2692C75.7374 91.2065 75.716 91.1264 75.6533 91.0902L70.5844 88.1632C70.5553 88.1464 70.5208 88.1414 70.488 88.1493L66.5735 89.0915ZM65.7237 89.4793C65.5748 88.9758 65.8786 88.4501 66.3896 88.3271L70.3041 87.3848C70.5331 87.3297 70.7745 87.3646 70.9784 87.4824L76.0473 90.4094C76.486 90.6627 76.6362 91.2234 76.3827 91.6621L73.6065 96.4675C73.3576 96.8982 72.8107 97.0526 72.3734 96.8156L67.3728 94.1053C67.1586 93.9893 66.9994 93.7928 66.9304 93.5593L65.7237 89.4793Z" fill="#202123"/>
<path d="M69.3418 91.4346C69.8058 91.3102 70.0839 90.8433 69.9629 90.3916C69.8418 89.9398 69.3675 89.6745 68.9035 89.7988C68.4395 89.9231 68.1614 90.3901 68.2824 90.8418C68.4035 91.2935 68.8778 91.5589 69.3418 91.4346Z" fill="#202123"/>
</g>
<path d="M98.7738 88.9669L96.515 80.537L99.3634 79.7738C100.025 79.5966 100.597 79.5711 101.081 79.6974C101.567 79.8201 101.965 80.056 102.277 80.405C102.588 80.7539 102.81 81.1768 102.943 81.6735C103.076 82.1701 103.095 82.6488 103.001 83.1093C102.91 83.5691 102.686 83.976 102.331 84.33C101.975 84.6812 101.469 84.9447 100.814 85.1204L98.772 85.6675L98.5294 84.7619L100.538 84.2237C100.991 84.1024 101.333 83.9267 101.566 83.6968C101.798 83.4668 101.941 83.2022 101.993 82.903C102.047 82.6002 102.029 82.2801 101.939 81.9426C101.848 81.605 101.704 81.3201 101.507 81.0877C101.312 80.8547 101.056 80.6998 100.738 80.6231C100.42 80.5437 100.031 80.5654 99.5731 80.6882L97.7784 81.1691L99.7946 88.6934L98.7738 88.9669ZM107.9 86.6804C107.499 86.7878 107.115 86.8097 106.748 86.7463C106.381 86.6801 106.062 86.5287 105.793 86.2921C105.523 86.0527 105.333 85.7271 105.222 85.3155C105.125 84.9533 105.118 84.6406 105.2 84.3773C105.282 84.1113 105.425 83.8818 105.629 83.6889C105.833 83.496 106.071 83.3293 106.342 83.189C106.616 83.0452 106.894 82.9148 107.177 82.7977C107.548 82.6453 107.85 82.5248 108.082 82.4362C108.316 82.344 108.479 82.2517 108.572 82.1592C108.668 82.0659 108.695 81.9411 108.653 81.7847L108.644 81.7517C108.535 81.3456 108.339 81.0598 108.057 80.8943C107.777 80.7282 107.413 80.705 106.966 80.8248C106.502 80.9491 106.166 81.1481 105.957 81.4217C105.748 81.6954 105.621 81.9618 105.576 82.221L104.565 82.1387C104.627 81.7104 104.766 81.3525 104.983 81.0649C105.203 80.7739 105.464 80.5421 105.768 80.3695C106.073 80.1935 106.386 80.0628 106.704 79.9775C106.907 79.9231 107.147 79.8853 107.423 79.8641C107.702 79.8394 107.985 79.8681 108.271 79.9501C108.561 80.0314 108.828 80.1995 109.073 80.4545C109.318 80.7095 109.507 81.0881 109.642 81.5902L110.758 85.7558L109.787 86.0161L109.557 85.1599L109.508 85.1731C109.479 85.328 109.408 85.5042 109.296 85.7018C109.185 85.8994 109.016 86.0873 108.79 86.2654C108.564 86.4436 108.268 86.5819 107.9 86.6804ZM107.814 85.7681C108.198 85.6652 108.502 85.5029 108.725 85.2814C108.951 85.0592 109.099 84.8107 109.169 84.5359C109.243 84.2604 109.244 83.9909 109.173 83.7275L108.935 82.8384C108.907 82.8988 108.829 82.9684 108.7 83.047C108.573 83.1222 108.423 83.1992 108.25 83.2779C108.079 83.3531 107.911 83.4245 107.747 83.492C107.585 83.5561 107.453 83.6089 107.353 83.6506C107.109 83.7512 106.887 83.8679 106.688 84.0008C106.49 84.1303 106.344 84.2857 106.248 84.4672C106.155 84.6452 106.141 84.8577 106.207 85.1046C106.298 85.4422 106.491 85.6639 106.787 85.7699C107.085 85.8724 107.427 85.8718 107.814 85.7681ZM112.531 85.2807L110.837 78.9583L111.775 78.7068L112.031 79.6618L112.097 79.6441C112.129 79.3004 112.269 78.9907 112.519 78.715C112.768 78.4393 113.083 78.2507 113.461 78.1492C113.533 78.1301 113.622 78.1076 113.73 78.0816C113.838 78.0557 113.92 78.0381 113.976 78.0289L114.241 79.0168C114.206 79.0174 114.127 79.0252 114.004 79.0404C113.884 79.0521 113.759 79.0752 113.63 79.1097C113.323 79.1921 113.066 79.3301 112.859 79.5238C112.654 79.714 112.512 79.9403 112.432 80.2029C112.354 80.4619 112.354 80.7341 112.43 81.0195L113.502 85.0204L112.531 85.2807ZM118.744 83.7748C118.343 83.8821 117.959 83.9041 117.592 83.8407C117.225 83.7745 116.906 83.6231 116.637 83.3864C116.367 83.147 116.177 82.8215 116.066 82.4099C115.969 82.0477 115.962 81.7349 116.044 81.4717C116.126 81.2057 116.269 80.9762 116.473 80.7833C116.677 80.5903 116.915 80.4237 117.186 80.2834C117.46 80.1396 117.738 80.0091 118.021 79.892C118.392 79.7397 118.694 79.6192 118.926 79.5305C119.16 79.4384 119.323 79.346 119.416 79.2535C119.512 79.1603 119.539 79.0354 119.497 78.879L119.488 78.8461C119.379 78.44 119.183 78.1542 118.901 77.9887C118.621 77.8225 118.257 77.7993 117.81 77.9192C117.346 78.0434 117.01 78.2424 116.801 78.5161C116.592 78.7897 116.465 79.0561 116.42 79.3153L115.409 79.2331C115.471 78.8048 115.61 78.4468 115.828 78.1593C116.047 77.8682 116.308 77.6364 116.612 77.4639C116.918 77.2878 117.23 77.1571 117.548 77.0718C117.751 77.0174 117.991 76.9796 118.267 76.9584C118.546 76.9338 118.829 76.9624 119.115 77.0444C119.405 77.1257 119.672 77.2938 119.917 77.5488C120.162 77.8038 120.351 78.1824 120.486 78.6846L121.602 82.8501L120.631 83.1104L120.401 82.2543L120.352 82.2675C120.323 82.4223 120.252 82.5986 120.14 82.7962C120.029 82.9937 119.86 83.1816 119.634 83.3598C119.408 83.5379 119.112 83.6762 118.744 83.7748ZM118.658 82.8624C119.042 82.7595 119.346 82.5973 119.569 82.3758C119.795 82.1535 119.943 81.905 120.013 81.6302C120.087 81.3547 120.088 81.0853 120.017 80.8218L119.779 79.9327C119.751 79.9932 119.673 80.0627 119.544 80.1414C119.417 80.2166 119.267 80.2935 119.094 80.3722C118.923 80.4475 118.755 80.5188 118.591 80.5864C118.429 80.6504 118.297 80.7033 118.197 80.745C117.953 80.8455 117.731 80.9623 117.532 81.0952C117.334 81.2246 117.188 81.3801 117.092 81.5615C116.999 81.7395 116.985 81.952 117.051 82.199C117.142 82.5365 117.335 82.7583 117.631 82.8642C117.929 82.9667 118.271 82.9661 118.658 82.8624ZM126.635 81.5015L124.941 75.1791L125.879 74.9276L126.144 75.9155L126.226 75.8935C126.268 75.5206 126.41 75.2016 126.654 74.9363C126.897 74.6683 127.224 74.4792 127.636 74.3689C128.053 74.2571 128.425 74.2588 128.753 74.3738C129.083 74.4854 129.371 74.689 129.618 74.9847L129.684 74.967C129.758 74.5971 129.932 74.2727 130.204 73.9938C130.476 73.7122 130.838 73.5108 131.291 73.3895C131.856 73.238 132.366 73.2911 132.82 73.5488C133.274 73.8037 133.6 74.303 133.799 75.0466L134.933 79.278L133.962 79.5383L132.828 75.3069C132.703 74.8404 132.486 74.5412 132.177 74.4093C131.868 74.2773 131.541 74.2577 131.195 74.3503C130.751 74.4694 130.442 74.6962 130.27 75.0305C130.097 75.3622 130.066 75.7324 130.175 76.1413L131.278 80.2574L130.29 80.5221L129.13 76.1919C129.034 75.8325 128.839 75.5742 128.547 75.4172C128.255 75.2574 127.924 75.2268 127.557 75.3253C127.304 75.393 127.086 75.5234 126.903 75.7167C126.722 75.9093 126.596 76.1429 126.526 76.4177C126.457 76.689 126.465 76.9796 126.548 77.2897L127.606 81.2412L126.635 81.5015ZM138.61 78.4518C138.209 78.5591 137.825 78.5811 137.458 78.5177C137.09 78.4515 136.772 78.3001 136.503 78.0634C136.233 77.824 136.042 77.4985 135.932 77.0869C135.835 76.7247 135.828 76.4119 135.91 76.1487C135.992 75.8827 136.135 75.6532 136.339 75.4603C136.543 75.2673 136.781 75.1007 137.052 74.9604C137.325 74.8166 137.603 74.6861 137.887 74.5691C138.258 74.4167 138.559 74.2962 138.791 74.2076C139.026 74.1154 139.189 74.0231 139.282 73.9305C139.377 73.8373 139.404 73.7124 139.362 73.556L139.354 73.5231C139.245 73.117 139.049 72.8312 138.766 72.6657C138.487 72.4995 138.123 72.4764 137.676 72.5962C137.212 72.7205 136.876 72.9194 136.667 73.1931C136.458 73.4667 136.33 73.7331 136.285 73.9923L135.275 73.9101C135.337 73.4818 135.476 73.1239 135.693 72.8363C135.912 72.5452 136.174 72.3134 136.477 72.1409C136.783 71.9648 137.095 71.8342 137.413 71.7489C137.617 71.6945 137.856 71.6567 138.133 71.6355C138.412 71.6108 138.694 71.6395 138.981 71.7215C139.271 71.8027 139.538 71.9709 139.782 72.2259C140.027 72.4808 140.217 72.8594 140.351 73.3616L141.468 77.5272L140.496 77.7874L140.267 76.9313L140.217 76.9445C140.188 77.0994 140.118 77.2756 140.006 77.4732C139.894 77.6708 139.726 77.8586 139.5 78.0368C139.274 78.2149 138.977 78.3533 138.61 78.4518ZM138.524 77.5395C138.908 77.4365 139.212 77.2743 139.435 77.0528C139.66 76.8305 139.809 76.582 139.879 76.3073C139.952 76.0318 139.954 75.7623 139.883 75.4989L139.645 74.6098C139.617 74.6702 139.538 74.7397 139.409 74.8184C139.283 74.8936 139.133 74.9705 138.96 75.0492C138.789 75.1245 138.621 75.1959 138.457 75.2634C138.294 75.3275 138.163 75.3803 138.062 75.422C137.819 75.5226 137.597 75.6393 137.397 75.7722C137.2 75.9017 137.053 76.0571 136.958 76.2386C136.864 76.4166 136.851 76.629 136.917 76.876C137.007 77.2135 137.2 77.4353 137.496 77.5412C137.795 77.6437 138.137 77.6431 138.524 77.5395ZM143.193 72.9884L144.212 76.7918L143.241 77.0521L141.547 70.7296L142.485 70.4782L142.75 71.4661L142.832 71.444C142.894 71.0832 143.05 70.765 143.3 70.4893C143.549 70.2108 143.912 70.0076 144.389 69.8797C144.817 69.765 145.216 69.7524 145.584 69.842C145.951 69.9289 146.271 70.1254 146.545 70.4316C146.817 70.7351 147.025 71.1557 147.169 71.6935L148.246 75.7109L147.274 75.9712L146.216 72.0197C146.083 71.523 145.85 71.1706 145.518 70.9626C145.185 70.7518 144.793 70.7067 144.343 70.8273C144.033 70.9104 143.774 71.0519 143.566 71.2518C143.36 71.451 143.222 71.6983 143.151 71.9937C143.081 72.2892 143.094 72.6207 143.193 72.9884ZM142.578 69.6414L141.812 69.8114C141.7 69.3916 141.727 69.0166 141.895 68.6864C142.064 68.3528 142.326 68.1385 142.68 68.0437C142.836 68.0018 142.982 67.9921 143.118 68.0146C143.252 68.0344 143.384 68.0639 143.512 68.1031C143.64 68.1423 143.769 68.1739 143.899 68.1979C144.031 68.2184 144.171 68.2088 144.319 68.1691C144.476 68.1272 144.591 68.0315 144.666 67.8821C144.743 67.7292 144.758 67.5663 144.711 67.3934L145.47 67.2608C145.585 67.6889 145.555 68.0615 145.381 68.3786C145.21 68.6951 144.948 68.9007 144.594 68.9956C144.404 69.0463 144.241 69.0621 144.103 69.0431C143.965 69.0213 143.839 68.989 143.724 68.9461C143.61 68.9032 143.492 68.8701 143.371 68.8466C143.25 68.8204 143.111 68.8282 142.954 68.8702C142.798 68.9121 142.684 69.0087 142.613 69.1602C142.544 69.3081 142.532 69.4685 142.578 69.6414ZM151.921 74.8849C151.521 74.9923 151.137 75.0143 150.77 74.9508C150.402 74.8847 150.084 74.7332 149.814 74.4966C149.544 74.2572 149.354 73.9317 149.244 73.52C149.147 73.1578 149.139 72.8451 149.222 72.5818C149.303 72.3158 149.446 72.0864 149.651 71.8934C149.855 71.7005 150.092 71.5339 150.364 71.3935C150.637 71.2497 150.915 71.1193 151.198 71.0022C151.569 70.8499 151.871 70.7294 152.103 70.6407C152.337 70.5486 152.501 70.4562 152.594 70.3637C152.689 70.2704 152.716 70.1456 152.674 69.9892L152.665 69.9563C152.556 69.5501 152.361 69.2643 152.078 69.0989C151.798 68.9327 151.435 68.9095 150.987 69.0294C150.524 69.1536 150.187 69.3526 149.978 69.6262C149.769 69.8999 149.642 70.1663 149.597 70.4255L148.587 70.3432C148.648 69.9149 148.788 69.557 149.005 69.2694C149.224 68.9784 149.485 68.7466 149.789 68.574C150.095 68.398 150.407 68.2673 150.725 68.182C150.928 68.1276 151.168 68.0898 151.445 68.0686C151.723 68.0439 152.006 68.0726 152.293 68.1546C152.582 68.2359 152.849 68.404 153.094 68.659C153.339 68.914 153.529 69.2926 153.663 69.7948L154.779 73.9603L153.808 74.2206L153.578 73.3644L153.529 73.3777C153.5 73.5325 153.43 73.7087 153.318 73.9063C153.206 74.1039 153.037 74.2918 152.811 74.4699C152.586 74.6481 152.289 74.7864 151.921 74.8849ZM151.836 73.9726C152.22 73.8697 152.523 73.7074 152.746 73.4859C152.972 73.2637 153.12 73.0152 153.191 72.7404C153.264 72.4649 153.265 72.1954 153.195 71.932L152.956 71.0429C152.928 71.1033 152.85 71.1729 152.721 71.2515C152.594 71.3267 152.444 71.4037 152.271 71.4824C152.1 71.5576 151.933 71.629 151.768 71.6966C151.606 71.7606 151.475 71.8135 151.374 71.8551C151.13 71.9557 150.909 72.0725 150.709 72.2054C150.511 72.3348 150.365 72.4903 150.269 72.6717C150.176 72.8497 150.162 73.0622 150.228 73.3092C150.319 73.6467 150.512 73.8684 150.808 73.9744C151.106 74.0769 151.449 74.0763 151.836 73.9726ZM156.505 69.4216L157.524 73.2249L156.552 73.4852L154.858 67.1628L155.797 66.9113L156.061 67.8992L156.144 67.8772C156.206 67.5164 156.362 67.1981 156.611 66.9224C156.86 66.644 157.224 66.4408 157.701 66.3128C158.129 66.1981 158.527 66.1856 158.895 66.2752C159.263 66.362 159.583 66.5586 159.856 66.8647C160.129 67.1682 160.337 67.5889 160.481 68.1267L161.558 72.1441L160.586 72.4044L159.527 68.4528C159.394 67.9562 159.162 67.6038 158.829 67.3958C158.496 67.185 158.105 67.1399 157.655 67.2605C157.345 67.3436 157.086 67.485 156.878 67.6849C156.672 67.8841 156.534 68.1314 156.463 68.4269C156.392 68.7223 156.406 69.0539 156.505 69.4216ZM165.233 71.3181C164.832 71.4254 164.448 71.4474 164.081 71.384C163.714 71.3178 163.395 71.1664 163.126 70.9297C162.856 70.6903 162.666 70.3648 162.555 69.9532C162.458 69.591 162.451 69.2782 162.533 69.015C162.615 68.749 162.758 68.5195 162.962 68.3266C163.166 68.1336 163.404 67.967 163.675 67.8267C163.949 67.6829 164.227 67.5524 164.51 67.4354C164.881 67.283 165.183 67.1625 165.415 67.0739C165.649 66.9817 165.812 66.8894 165.905 66.7968C166.001 66.7036 166.028 66.5787 165.986 66.4223L165.977 66.3894C165.868 65.9833 165.672 65.6975 165.39 65.532C165.11 65.3658 164.746 65.3427 164.299 65.4625C163.835 65.5868 163.499 65.7857 163.29 66.0594C163.081 66.333 162.954 66.5994 162.909 66.8586L161.898 66.7764C161.96 66.3481 162.099 65.9902 162.316 65.7026C162.536 65.4115 162.797 65.1797 163.101 65.0072C163.406 64.8311 163.719 64.7005 164.037 64.6152C164.24 64.5608 164.48 64.523 164.756 64.5018C165.035 64.4771 165.318 64.5058 165.604 64.5878C165.894 64.669 166.161 64.8372 166.406 65.0922C166.651 65.3471 166.84 65.7257 166.975 66.2279L168.091 70.3935L167.12 70.6537L166.89 69.7976L166.841 69.8108C166.812 69.9657 166.741 70.1419 166.629 70.3395C166.518 70.5371 166.349 70.7249 166.123 70.9031C165.897 71.0812 165.601 71.2196 165.233 71.3181ZM165.147 70.4058C165.531 70.3028 165.835 70.1406 166.058 69.9191C166.284 69.6968 166.432 69.4483 166.502 69.1736C166.576 68.8981 166.577 68.6286 166.506 68.3652L166.268 67.4761C166.24 67.5365 166.162 67.606 166.033 67.6847C165.906 67.7599 165.756 67.8368 165.583 67.9155C165.412 67.9908 165.244 68.0622 165.08 68.1297C164.918 68.1938 164.786 68.2466 164.686 68.2883C164.442 68.3889 164.22 68.5056 164.021 68.6385C163.823 68.768 163.677 68.9234 163.581 69.1049C163.488 69.2829 163.474 69.4953 163.54 69.7423C163.631 70.0798 163.824 70.3016 164.12 70.4075C164.418 70.51 164.76 70.5094 165.147 70.4058Z" fill="#202123"/>
<defs>
<clipPath id="clip0_1_1096">
<rect width="14" height="14" fill="white" transform="translate(15.4734 71.9467) rotate(-15)"/>
</clipPath>
<clipPath id="clip1_1_1096">
<rect width="8" height="8" fill="white" transform="translate(46.4202 94.7128) rotate(-15)"/>
</clipPath>
<clipPath id="clip2_1_1096">
<rect width="12" height="12" fill="white" transform="translate(64.2551 87.8634) rotate(-15)"/>
</clipPath>
</defs>
</svg>
