<svg width="101" height="130" viewBox="0 0 101 130" fill="none" xmlns="http://www.w3.org/2000/svg">
<path fill-rule="evenodd" clip-rule="evenodd" d="M49.8235 77.4109C49.99 76.8621 50.0601 76.2637 50.1297 75.6662C50.6778 72.5318 51.3644 68.9012 50.8523 65.6839C50.1426 61.445 48.1672 58.91 45.5618 57.57C41.8934 55.6869 36.732 56.4047 32.485 58.8775C28.2557 61.3167 24.8843 65.3856 24.382 69.8295C24.0108 72.861 24.9869 76.129 28.0153 79.2264C31.4286 82.7572 35.9485 83.7228 40.6634 83.1548C42.4798 82.9665 44.2002 82.4946 45.9784 81.9133C45.4423 83.6288 44.8984 85.3598 44.3425 87.1127C42.3476 92.7595 39.6359 98.3707 36.5629 103.503C32.5908 110.342 27.6262 116.269 21.5337 121.313C21.027 121.809 20.955 122.644 21.4014 123.193C21.8483 123.742 22.6697 123.811 23.2723 123.366C29.5949 118.119 34.7943 111.979 38.911 104.866C41.969 99.5292 44.8602 93.809 46.8395 87.959C47.6333 85.5219 48.4055 83.1262 49.0684 80.7048C52.7757 79.0232 56.1697 76.773 58.6422 74.6418C74.8378 60.203 78.8636 31.3875 78.8112 10.5417C78.8237 9.81969 78.2656 9.24831 77.5308 9.24617C76.7955 9.245 76.2306 9.85127 76.2181 10.5732C76.2582 30.7441 72.5688 58.6906 56.8697 72.6527C55.0231 74.2945 52.5371 75.9857 49.8235 77.4109ZM46.7729 78.7763C47.1223 77.648 47.3726 76.4761 47.5249 75.2562C47.9551 72.3455 48.7082 69.0553 48.2858 66.1331C47.7615 62.9388 46.3555 60.9504 44.4255 59.9578C41.3371 58.3705 37.2385 59.1664 33.8428 61.1876C30.3339 63.1909 27.3937 66.4419 27.0383 70.1416C26.7742 72.5045 27.555 74.9803 29.8586 77.3584C32.7259 80.2961 36.5112 81.0253 40.3325 80.5236C42.5416 80.2884 44.7171 79.6516 46.7729 78.7763Z" fill="#28292B"/>
<path fill-rule="evenodd" clip-rule="evenodd" d="M77.7558 9.75721C78.0571 10.349 78.27 11.1088 78.4823 11.8696C78.9277 13.3517 79.2465 14.8419 79.727 15.7919C82.5649 21.578 86.0403 28.4815 90.584 33.1256C91.0552 33.6279 91.9047 33.6451 92.4205 33.1319C92.9357 32.6197 92.9955 31.8086 92.4283 31.2557C88.1352 26.8344 84.8813 20.2071 82.068 14.6069C81.6107 13.6128 81.213 11.8087 80.7803 10.3025C80.3636 8.99865 79.8562 7.86649 79.1217 7.16543C78.7329 6.73969 77.7677 6.47635 76.6221 7.25366C75.0468 8.38096 72.1321 12.2809 71.819 12.6421C68.6604 16.3079 65.7661 19.4728 60.7302 20.1844C60.0504 20.3106 59.5686 20.9925 59.5819 21.6655C59.6911 22.3891 60.3985 22.9092 61.0788 22.782C66.7889 21.9548 70.2995 18.5516 73.8617 14.3527C74.0215 14.0494 75.7457 11.709 77.253 10.2453C77.4497 10.1049 77.5606 9.89476 77.7558 9.75721Z" fill="#28292B"/>
</svg>
