<svg width="44" height="44" viewBox="0 0 44 44" fill="none" xmlns="http://www.w3.org/2000/svg">
<path d="M23.3871 1.31494C23.2849 0.548585 22.5808 0.0100717 21.8143 0.112306C21.0479 0.214478 20.5095 0.918641 20.6117 1.68506C20.9753 4.41266 21.3974 10.3097 21.3495 18.536C16.1053 13.5812 10.8742 8.67316 7.45542 5.47723C6.8906 4.94928 6.00461 4.97913 5.47666 5.54395C4.94858 6.10883 4.97849 6.99475 5.54331 7.52277C9.01987 10.7725 14.3512 15.775 19.6622 20.7939C19.5923 20.8995 19.5271 21.0087 19.4673 21.121C12.4815 20.9378 5.81296 20.4864 1.62607 20.1058C0.85605 20.0358 0.175142 20.6032 0.105073 21.3732C0.0351271 22.1432 0.602632 22.8242 1.37265 22.8942C5.55393 23.2744 12.1568 23.7226 19.1039 23.9122C19.16 24.1527 19.2378 24.3849 19.3351 24.6065C15.6803 28.0145 11.4585 31.5197 6.6965 34.8531C6.06308 35.2964 5.90903 36.1694 6.35239 36.8029C6.79587 37.4363 7.66879 37.5903 8.30222 37.1469C13.1351 33.7639 17.429 30.2052 21.1574 26.7355C20.9721 31.3318 20.6411 36.4054 20.1061 41.8634C20.0306 42.6329 20.5932 43.3179 21.3628 43.3933C22.1323 43.4688 22.8172 42.9061 22.8927 42.1366C23.4314 36.6426 23.7658 31.5279 23.9536 26.8854C24.4774 26.7573 24.9607 26.5259 25.3807 26.2142C29.6308 30.2567 33.3806 33.8611 35.5094 35.9899C36.0561 36.5367 36.9426 36.5367 37.4893 35.9899C38.036 35.4432 38.036 34.5568 37.4893 34.0101C35.3106 31.8314 31.4594 28.1307 27.1135 23.9981C32.8159 23.9519 38.2656 23.6437 42.2638 22.8748C43.023 22.7288 43.5202 21.9949 43.3741 21.2356C43.2281 20.4763 42.4942 19.9792 41.735 20.1252C37.8849 20.8656 32.4839 21.1652 26.7297 21.2006C32.3275 15.2617 36.04 10.0792 37.7101 7.203C38.0984 6.53436 37.8709 5.67755 37.2024 5.28931C36.5337 4.90106 35.6768 5.12836 35.2887 5.797C33.7201 8.49841 30.1146 13.5363 24.6297 19.3463C24.4732 19.2763 24.3114 19.2161 24.145 19.1664C24.2191 10.5063 23.7789 4.25397 23.3871 1.31494Z" fill="#94B0DA"/>
</svg>
