<svg width="21" height="23" viewBox="0 0 21 23" fill="none" xmlns="http://www.w3.org/2000/svg">
<path fill-rule="evenodd" clip-rule="evenodd" d="M8.30023 4.60438C8.23847 4.23287 8.19195 3.86558 8.16189 3.49825C8.1166 2.94726 8.1446 2.39205 8.12854 1.84106C8.12154 1.6073 8.09395 0.997878 8.10507 0.910219C8.20595 0.146341 8.81409 0.029449 8.99197 0.00857802C9.07802 -0.00394457 9.96163 -0.104081 10.1523 0.889379C10.3861 2.10407 10.4611 3.32709 10.3783 4.52509C10.5714 5.54359 10.9017 6.5579 11.3377 7.47623C13.0728 11.1287 16.3791 11.4835 19.9613 11.4501C20.5123 11.4417 20.9697 11.88 20.9986 12.4352C21.0274 12.9945 20.6173 13.4787 20.0688 13.5288C18.0665 13.725 14.5139 15.353 13.2857 17.0477C13.0287 17.4025 12.8793 18.2582 12.6816 19.0972C12.4058 20.2618 12.0776 21.4139 11.7099 21.8981C11.6547 21.9732 10.984 22.7413 10.7839 22.854C10.303 23.1212 9.918 22.9667 9.69936 22.8248C9.48072 22.6828 9.23326 22.4032 9.13444 21.9398C9.03109 21.4556 9.11838 20.4621 9.10232 20.2493C9.04385 19.477 8.89152 17.9618 8.58065 16.6595C8.41307 15.9582 8.23436 15.3112 7.93872 14.9898C6.8443 13.8001 5.09437 13.9755 3.62072 14.1717C3.45149 14.1925 3.28227 14.2176 3.11345 14.2385C2.51353 14.4179 1.87654 14.5515 1.20334 14.6308C0.18673 14.7519 0.0195714 13.8043 0.0105129 13.7417C-0.0084275 13.604 -0.0788438 12.8944 0.687419 12.6105C0.771004 12.5813 1.38781 12.4435 1.62539 12.3893C1.95643 12.3141 2.29118 12.2557 2.62716 12.2014C6.09779 11.1078 7.98278 8.03557 8.30023 4.60438Z" fill="#FFBB54"/>
</svg>
